<svg width="20" height="20" viewBox="0 0 20 20" fill="none" xmlns="http://www.w3.org/2000/svg">
<g clip-path="url(#clip0_2009_119)">
<path d="M9 0.3125C3.64844 0.3125 -0.6875 4.64844 -0.6875 10C-0.6875 15.3516 3.64844 19.6875 9 19.6875C14.3516 19.6875 18.6875 15.3516 18.6875 10C18.6875 4.64844 14.3516 0.3125 9 0.3125ZM12.6129 12.5391L11.8316 13.5156C11.7804 13.5797 11.717 13.6331 11.6451 13.6727C11.5732 13.7123 11.4942 13.7373 11.4126 13.7464C11.331 13.7555 11.2485 13.7484 11.1696 13.7255C11.0908 13.7027 11.0172 13.6646 10.9531 13.6133L8.33594 11.6711C8.15307 11.5247 8.00546 11.339 7.90404 11.1279C7.80262 10.9167 7.74997 10.6854 7.75 10.4512V4.375C7.75 4.20924 7.81585 4.05027 7.93306 3.93306C8.05027 3.81585 8.20924 3.75 8.375 3.75H9.625C9.79076 3.75 9.94973 3.81585 10.0669 3.93306C10.1842 4.05027 10.25 4.20924 10.25 4.375V10L12.5156 11.6602C12.5798 11.7115 12.6331 11.7749 12.6727 11.8468C12.7123 11.9188 12.7374 11.9978 12.7464 12.0795C12.7554 12.1611 12.7483 12.2437 12.7254 12.3225C12.7025 12.4014 12.6642 12.475 12.6129 12.5391Z" fill="white"/>
</g>
<defs>
<clipPath id="clip0_2009_119">
<rect width="20" height="20" fill="white"/>
</clipPath>
</defs>
</svg>
