<svg width="20" height="20" viewBox="0 0 20 20" fill="none" xmlns="http://www.w3.org/2000/svg">
<g clip-path="url(#clip0_2009_123)">
<path d="M18.2738 0.96136L14.2113 0.0238599C13.7699 -0.0777026 13.3168 0.152766 13.1371 0.566829L11.2621 4.94183C11.0981 5.32464 11.2074 5.77386 11.5317 6.03558L13.8988 7.97308C12.4926 10.9692 10.0356 13.4614 6.97697 14.895L5.03947 12.5278C4.77384 12.2035 4.32853 12.0942 3.94572 12.2582L-0.429281 14.1332C-0.847249 14.3168 -1.07772 14.77 -0.976156 15.2114L-0.0386556 19.2739C0.0590006 19.6957 0.434 20.0004 0.875407 20.0004C10.8793 20.0004 19.0004 11.895 19.0004 1.87542C19.0004 1.43792 18.6996 1.05902 18.2738 0.96136Z" fill="white"/>
</g>
<defs>
<clipPath id="clip0_2009_123">
<rect width="20" height="20" fill="white"/>
</clipPath>
</defs>
</svg>
