<svg width="20" height="20" viewBox="0 0 20 20" fill="none" xmlns="http://www.w3.org/2000/svg">
<g clip-path="url(#clip0_2009_127)">
<path d="M8.22922 19.5965C2.55352 11.3684 1.5 10.5239 1.5 7.5C1.5 3.35785 4.85785 0 9 0C13.1421 0 16.5 3.35785 16.5 7.5C16.5 10.5239 15.4465 11.3684 9.77078 19.5965C9.39832 20.1345 8.60164 20.1345 8.22922 19.5965ZM9 10.625C10.7259 10.625 12.125 9.2259 12.125 7.5C12.125 5.7741 10.7259 4.375 9 4.375C7.2741 4.375 5.875 5.7741 5.875 7.5C5.875 9.2259 7.2741 10.625 9 10.625Z" fill="white"/>
</g>
<defs>
<clipPath id="clip0_2009_127">
<rect width="20" height="20" fill="white"/>
</clipPath>
</defs>
</svg>
